<svg width="28" height="28" viewBox="0 0 28 28" fill="none" xmlns="http://www.w3.org/2000/svg">
<path fill-rule="evenodd" clip-rule="evenodd" d="M7.23825 15.1666C6.62714 15.1666 6.12714 15.6916 6.12714 16.3333C6.12714 16.975 6.62714 17.5 7.23825 17.5C7.84937 17.5 8.34937 16.975 8.34937 16.3333C8.34937 15.6916 7.84937 15.1666 7.23825 15.1666ZM7.23825 19.8333C6.62714 19.8333 6.12714 20.3583 6.12714 21C6.12714 21.6416 6.62714 22.1666 7.23825 22.1666C7.84937 22.1666 8.34937 21.6416 8.34937 21C8.34937 20.3583 7.84937 19.8333 7.23825 19.8333ZM7.23825 10.5C6.62714 10.5 6.12714 11.025 6.12714 11.6666C6.12714 12.3083 6.62714 12.8333 7.23825 12.8333C7.84937 12.8333 8.34937 12.3083 8.34937 11.6666C8.34937 11.025 7.84937 10.5 7.23825 10.5ZM3.90492 11.0833C3.59381 11.0833 3.34937 11.34 3.34937 11.6666C3.34937 11.9933 3.59381 12.25 3.90492 12.25C4.21603 12.25 4.46048 11.9933 4.46048 11.6666C4.46048 11.34 4.21603 11.0833 3.90492 11.0833ZM7.23825 5.83329C6.62714 5.83329 6.12714 6.35829 6.12714 6.99996C6.12714 7.64163 6.62714 8.16663 7.23825 8.16663C7.84937 8.16663 8.34937 7.64163 8.34937 6.99996C8.34937 6.35829 7.84937 5.83329 7.23825 5.83329ZM23.9049 12.25C24.216 12.25 24.4605 11.9933 24.4605 11.6666C24.4605 11.34 24.216 11.0833 23.9049 11.0833C23.5938 11.0833 23.3494 11.34 23.3494 11.6666C23.3494 11.9933 23.5938 12.25 23.9049 12.25ZM16.1271 8.16663C16.7383 8.16663 17.2383 7.64163 17.2383 6.99996C17.2383 6.35829 16.7383 5.83329 16.1271 5.83329C15.516 5.83329 15.016 6.35829 15.016 6.99996C15.016 7.64163 15.516 8.16663 16.1271 8.16663ZM16.1271 4.08329C16.4383 4.08329 16.6827 3.82663 16.6827 3.49996C16.6827 3.17329 16.4383 2.91663 16.1271 2.91663C15.816 2.91663 15.5716 3.17329 15.5716 3.49996C15.5716 3.82663 15.816 4.08329 16.1271 4.08329ZM3.90492 15.75C3.59381 15.75 3.34937 16.0066 3.34937 16.3333C3.34937 16.66 3.59381 16.9166 3.90492 16.9166C4.21603 16.9166 4.46048 16.66 4.46048 16.3333C4.46048 16.0066 4.21603 15.75 3.90492 15.75ZM11.6827 23.9166C11.3716 23.9166 11.1271 24.1733 11.1271 24.5C11.1271 24.8266 11.3716 25.0833 11.6827 25.0833C11.9938 25.0833 12.2383 24.8266 12.2383 24.5C12.2383 24.1733 11.9938 23.9166 11.6827 23.9166ZM11.6827 4.08329C11.9938 4.08329 12.2383 3.82663 12.2383 3.49996C12.2383 3.17329 11.9938 2.91663 11.6827 2.91663C11.3716 2.91663 11.1271 3.17329 11.1271 3.49996C11.1271 3.82663 11.3716 4.08329 11.6827 4.08329ZM11.6827 8.16663C12.2938 8.16663 12.7938 7.64163 12.7938 6.99996C12.7938 6.35829 12.2938 5.83329 11.6827 5.83329C11.0716 5.83329 10.5716 6.35829 10.5716 6.99996C10.5716 7.64163 11.0716 8.16663 11.6827 8.16663ZM11.6827 14.5833C10.7605 14.5833 10.016 15.365 10.016 16.3333C10.016 17.3016 10.7605 18.0833 11.6827 18.0833C12.6049 18.0833 13.3494 17.3016 13.3494 16.3333C13.3494 15.365 12.6049 14.5833 11.6827 14.5833ZM20.5716 15.1666C19.9605 15.1666 19.4605 15.6916 19.4605 16.3333C19.4605 16.975 19.9605 17.5 20.5716 17.5C21.1827 17.5 21.6827 16.975 21.6827 16.3333C21.6827 15.6916 21.1827 15.1666 20.5716 15.1666ZM20.5716 19.8333C19.9605 19.8333 19.4605 20.3583 19.4605 21C19.4605 21.6416 19.9605 22.1666 20.5716 22.1666C21.1827 22.1666 21.6827 21.6416 21.6827 21C21.6827 20.3583 21.1827 19.8333 20.5716 19.8333ZM20.5716 10.5C19.9605 10.5 19.4605 11.025 19.4605 11.6666C19.4605 12.3083 19.9605 12.8333 20.5716 12.8333C21.1827 12.8333 21.6827 12.3083 21.6827 11.6666C21.6827 11.025 21.1827 10.5 20.5716 10.5ZM20.5716 5.83329C19.9605 5.83329 19.4605 6.35829 19.4605 6.99996C19.4605 7.64163 19.9605 8.16663 20.5716 8.16663C21.1827 8.16663 21.6827 7.64163 21.6827 6.99996C21.6827 6.35829 21.1827 5.83329 20.5716 5.83329ZM23.9049 15.75C23.5938 15.75 23.3494 16.0066 23.3494 16.3333C23.3494 16.66 23.5938 16.9166 23.9049 16.9166C24.216 16.9166 24.4605 16.66 24.4605 16.3333C24.4605 16.0066 24.216 15.75 23.9049 15.75ZM16.1271 19.8333C15.516 19.8333 15.016 20.3583 15.016 21C15.016 21.6416 15.516 22.1666 16.1271 22.1666C16.7383 22.1666 17.2383 21.6416 17.2383 21C17.2383 20.3583 16.7383 19.8333 16.1271 19.8333ZM16.1271 23.9166C15.816 23.9166 15.5716 24.1733 15.5716 24.5C15.5716 24.8266 15.816 25.0833 16.1271 25.0833C16.4383 25.0833 16.6827 24.8266 16.6827 24.5C16.6827 24.1733 16.4383 23.9166 16.1271 23.9166ZM11.6827 9.91663C10.7605 9.91663 10.016 10.6983 10.016 11.6666C10.016 12.635 10.7605 13.4166 11.6827 13.4166C12.6049 13.4166 13.3494 12.635 13.3494 11.6666C13.3494 10.6983 12.6049 9.91663 11.6827 9.91663ZM11.6827 19.8333C11.0716 19.8333 10.5716 20.3583 10.5716 21C10.5716 21.6416 11.0716 22.1666 11.6827 22.1666C12.2938 22.1666 12.7938 21.6416 12.7938 21C12.7938 20.3583 12.2938 19.8333 11.6827 19.8333ZM16.1271 14.5833C15.2049 14.5833 14.4605 15.365 14.4605 16.3333C14.4605 17.3016 15.2049 18.0833 16.1271 18.0833C17.0494 18.0833 17.7938 17.3016 17.7938 16.3333C17.7938 15.365 17.0494 14.5833 16.1271 14.5833ZM16.1271 9.91663C15.2049 9.91663 14.4605 10.6983 14.4605 11.6666C14.4605 12.635 15.2049 13.4166 16.1271 13.4166C17.0494 13.4166 17.7938 12.635 17.7938 11.6666C17.7938 10.6983 17.0494 9.91663 16.1271 9.91663Z" fill="#969696"/>
</svg>
